<svg width="32" height="30" viewBox="0 0 32 30" fill="none" xmlns="http://www.w3.org/2000/svg">
<g filter="url(#filter0_i_75_266)">
<path d="M18.8027 27.5078C19.3363 27.5078 19.7694 27.9401 19.7695 28.4736C19.7695 29.0073 19.3364 29.4404 18.8027 29.4404H12.2764C11.7427 29.4404 11.3096 29.0073 11.3096 28.4736C11.3097 27.9402 11.742 27.5081 12.2754 27.5078H18.8027ZM24.3379 24.7568C24.8716 24.7568 25.3047 25.19 25.3047 25.7236C25.3044 26.2569 24.8722 26.6892 24.3389 26.6895H7.45215C6.91863 26.6893 6.48633 26.2562 6.48633 25.7227C6.48659 25.1893 6.91879 24.757 7.45215 24.7568H24.3379ZM27.123 22.0059C27.6565 22.0061 28.0889 22.4391 28.0889 22.9727C28.0886 23.5059 27.6563 23.9382 27.123 23.9385H12.8945C12.3611 23.9382 11.9287 23.5052 11.9287 22.9717C11.929 22.4382 12.362 22.0059 12.8955 22.0059H27.123ZM28.9297 19.2549C29.4634 19.2549 29.8965 19.688 29.8965 20.2217C29.8964 20.7552 29.4633 21.1875 28.9297 21.1875H8.29297C7.75937 21.1875 7.32728 20.7552 7.32715 20.2217C7.32715 19.688 7.75929 19.2549 8.29297 19.2549H28.9297ZM25.6758 16.5039C26.2095 16.5039 26.6426 16.937 26.6426 17.4707C26.6426 18.0044 26.2095 18.4365 25.6758 18.4365H1.59863C1.06511 18.4363 0.632814 18.0043 0.632812 17.4707C0.632813 16.9371 1.06511 16.5041 1.59863 16.5039H25.6758ZM30.5762 13.7539C31.1098 13.7539 31.5428 14.1862 31.543 14.7197C31.543 15.2534 31.1098 15.6865 30.5762 15.6865H0.966797C0.433119 15.6865 0 15.2534 0 14.7197C0.000131879 14.1863 0.432449 13.7542 0.96582 13.7539H30.5762ZM14.3135 11.0029C14.8472 11.0029 15.2803 11.436 15.2803 11.9697C15.28 12.503 14.8477 12.9353 14.3145 12.9355H1.59961C1.06609 12.9355 0.633076 12.5032 0.632812 11.9697C0.632812 11.4362 1.06518 11.0032 1.59863 11.0029H14.3135ZM17.6084 8.25195C18.1421 8.25195 18.5752 8.68507 18.5752 9.21875C18.5751 9.75232 18.142 10.1846 17.6084 10.1846H2.72754C2.19394 10.1846 1.76185 9.75232 1.76172 9.21875C1.76172 8.68507 2.19386 8.25195 2.72754 8.25195H17.6084ZM27.1182 5.50195C27.6517 5.50213 28.084 5.9342 28.084 6.46777C28.084 7.00134 27.6517 7.43439 27.1182 7.43457H7.04297C6.50952 7.43431 6.07715 7.00129 6.07715 6.46777C6.07715 5.9341 6.51027 5.50195 7.04395 5.50195H27.1182ZM24.2051 2.75098C24.7386 2.75116 25.1709 3.18324 25.1709 3.7168C25.1709 4.25036 24.7386 4.68341 24.2051 4.68359H12.3838C11.8501 4.68359 11.418 4.25047 11.418 3.7168C11.418 3.18312 11.8501 2.75098 12.3838 2.75098H24.2051ZM18.8027 0C19.3363 0 19.7694 0.432255 19.7695 0.96582C19.7695 1.4995 19.3364 1.93262 18.8027 1.93262H12.2764C11.7427 1.93262 11.3096 1.4995 11.3096 0.96582C11.3097 0.432418 11.742 0.000263814 12.2754 0H18.8027Z" fill="url(#paint0_linear_75_266)"/>
</g>
<defs>
<filter id="filter0_i_75_266" x="0" y="0" width="31.543" height="33.4404" filterUnits="userSpaceOnUse" color-interpolation-filters="sRGB">
<feFlood flood-opacity="0" result="BackgroundImageFix"/>
<feBlend mode="normal" in="SourceGraphic" in2="BackgroundImageFix" result="shape"/>
<feColorMatrix in="SourceAlpha" type="matrix" values="0 0 0 0 0 0 0 0 0 0 0 0 0 0 0 0 0 0 127 0" result="hardAlpha"/>
<feOffset dy="4"/>
<feGaussianBlur stdDeviation="5"/>
<feComposite in2="hardAlpha" operator="arithmetic" k2="-1" k3="1"/>
<feColorMatrix type="matrix" values="0 0 0 0 1 0 0 0 0 0.976345 0 0 0 0 0.976345 0 0 0 0.1 0"/>
<feBlend mode="normal" in2="shape" result="effect1_innerShadow_75_266"/>
</filter>
<linearGradient id="paint0_linear_75_266" x1="5.88623" y1="1.48047" x2="24.8862" y2="27.4805" gradientUnits="userSpaceOnUse">
<stop stop-color="#FF8538"/>
<stop offset="1" stop-color="#F64C4C"/>
</linearGradient>
</defs>
</svg>
